<svg width="161" height="132" viewBox="0 0 161 132" fill="none" xmlns="http://www.w3.org/2000/svg">
<rect width="161" height="132" rx="15" fill="#C6C6C6"/>
<path d="M62.9167 86.5C59.1583 86.5 56.1175 89.575 56.1175 93.3333C56.1175 97.0916 59.1583 100.167 62.9167 100.167C66.675 100.167 69.75 97.0916 69.75 93.3333C69.75 89.575 66.675 86.5 62.9167 86.5ZM42.4167 31.8333V38.6666H49.25L61.55 64.5991L56.9375 72.97C56.3908 73.9266 56.0833 75.0541 56.0833 76.25C56.0833 80.0083 59.1583 83.0833 62.9167 83.0833H103.917V76.25H64.3517C63.8733 76.25 63.4975 75.8741 63.4975 75.3958L63.6 74.9858L66.675 69.4166H92.1292C94.6917 69.4166 96.9467 68.0158 98.1083 65.8975L110.34 43.7233C110.613 43.245 110.75 42.6641 110.75 42.0833C110.75 40.2041 109.213 38.6666 107.333 38.6666H56.8008L53.5892 31.8333H42.4167ZM97.0833 86.5C93.325 86.5 90.2842 89.575 90.2842 93.3333C90.2842 97.0916 93.325 100.167 97.0833 100.167C100.842 100.167 103.917 97.0916 103.917 93.3333C103.917 89.575 100.842 86.5 97.0833 86.5Z" fill="white"/>
</svg>
